<svg width="40" height="40" viewBox="0 0 40 40" fill="none" xmlns="http://www.w3.org/2000/svg">
<path d="M26.6667 30C27.5507 30 28.3986 30.3512 29.0237 30.9763C29.6488 31.6014 30 32.4493 30 33.3333C30 34.2174 29.6488 35.0652 29.0237 35.6904C28.3986 36.3155 27.5507 36.6667 26.6667 36.6667C25.7826 36.6667 24.9348 36.3155 24.3097 35.6904C23.6845 35.0652 23.3334 34.2174 23.3334 33.3333C23.3334 32.4493 23.6845 31.6014 24.3097 30.9763C24.9348 30.3512 25.7826 30 26.6667 30ZM26.6667 31.6667C26.2247 31.6667 25.8007 31.8423 25.4882 32.1548C25.1756 32.4674 25 32.8913 25 33.3333C25 33.7754 25.1756 34.1993 25.4882 34.5118C25.8007 34.8244 26.2247 35 26.6667 35C27.1087 35 27.5326 34.8244 27.8452 34.5118C28.1578 34.1993 28.3334 33.7754 28.3334 33.3333C28.3334 32.8913 28.1578 32.4674 27.8452 32.1548C27.5326 31.8423 27.1087 31.6667 26.6667 31.6667ZM11.6667 30C12.5507 30 13.3986 30.3512 14.0237 30.9763C14.6488 31.6014 15 32.4493 15 33.3333C15 34.2174 14.6488 35.0652 14.0237 35.6904C13.3986 36.3155 12.5507 36.6667 11.6667 36.6667C10.7826 36.6667 9.93479 36.3155 9.30966 35.6904C8.68454 35.0652 8.33335 34.2174 8.33335 33.3333C8.33335 32.4493 8.68454 31.6014 9.30966 30.9763C9.93479 30.3512 10.7826 30 11.6667 30ZM11.6667 31.6667C11.2247 31.6667 10.8007 31.8423 10.4882 32.1548C10.1756 32.4674 10 32.8913 10 33.3333C10 33.7754 10.1756 34.1993 10.4882 34.5118C10.8007 34.8244 11.2247 35 11.6667 35C12.1087 35 12.5326 34.8244 12.8452 34.5118C13.1578 34.1993 13.3334 33.7754 13.3334 33.3333C13.3334 32.8913 13.1578 32.4674 12.8452 32.1548C12.5326 31.8423 12.1087 31.6667 11.6667 31.6667ZM30 10H7.12169L11.3667 20H25C25.2592 20.0004 25.5148 19.94 25.7464 19.8236C25.978 19.7073 26.179 19.5382 26.3334 19.33L31.3334 12.6633H31.335C31.5199 12.4156 31.6322 12.1213 31.6594 11.8134C31.6866 11.5055 31.6277 11.1961 31.4892 10.9198C31.3507 10.6435 31.138 10.4111 30.8751 10.2487C30.6121 10.0863 30.3091 10.0002 30 10ZM25 21.6667H11.4434L10.1667 24.2667L10 25C10 25.442 10.1756 25.866 10.4882 26.1785C10.8007 26.4911 11.2247 26.6667 11.6667 26.6667H30V28.3333H11.6667C11.0863 28.3336 10.5159 28.1824 10.0119 27.8945C9.50793 27.6067 9.08783 27.1922 8.7932 26.6922C8.49856 26.1921 8.33959 25.6238 8.33202 25.0435C8.32445 24.4632 8.46853 23.8909 8.75002 23.3833L9.95002 20.9267L3.89669 6.66667H1.66669V5H5.00002L6.41502 8.33333H30C30.6298 8.33339 31.2467 8.51187 31.7792 8.84809C32.3118 9.18431 32.7382 9.66452 33.009 10.2331C33.2799 10.8017 33.3841 11.4353 33.3097 12.0607C33.2352 12.6861 32.9851 13.2776 32.5884 13.7667L27.7317 20.2433C27.4246 20.683 27.0159 21.042 26.5403 21.2898C26.0647 21.5376 25.5363 21.6669 25 21.6667Z" fill="#8A9A5A"/>
</svg>
