<svg width="40" height="40" viewBox="0 0 40 40" fill="none" xmlns="http://www.w3.org/2000/svg">
<path d="M19.1667 11.6667C20.2717 11.6667 21.3315 12.1056 22.1129 12.887C22.8943 13.6684 23.3333 14.7283 23.3333 15.8333C23.3333 16.9384 22.8943 17.9982 22.1129 18.7796C21.3315 19.561 20.2717 20 19.1667 20C18.0616 20 17.0018 19.561 16.2204 18.7796C15.439 17.9982 15 16.9384 15 15.8333C15 14.7283 15.439 13.6684 16.2204 12.887C17.0018 12.1056 18.0616 11.6667 19.1667 11.6667ZM19.1667 13.3333C18.5036 13.3333 17.8677 13.5967 17.3989 14.0656C16.93 14.5344 16.6667 15.1703 16.6667 15.8333C16.6667 16.4964 16.93 17.1322 17.3989 17.6011C17.8677 18.0699 18.5036 18.3333 19.1667 18.3333C19.8297 18.3333 20.4656 18.0699 20.9344 17.6011C21.4033 17.1322 21.6667 16.4964 21.6667 15.8333C21.6667 15.1703 21.4033 14.5344 20.9344 14.0656C20.4656 13.5967 19.8297 13.3333 19.1667 13.3333ZM11.3333 20.595L19.1667 33.4783L27 20.595C27.8448 19.205 28.3045 17.6152 28.332 15.9889C28.3595 14.3625 27.9537 12.7581 27.1563 11.3404C26.359 9.92265 25.1987 8.74262 23.7946 7.9214C22.3905 7.10019 20.7933 6.66737 19.1667 6.66737C17.5401 6.66737 15.9428 7.10019 14.5387 7.9214C13.1346 8.74262 11.9744 9.92265 11.177 11.3404C10.3796 12.7581 9.97382 14.3625 10.0013 15.9889C10.0288 17.6152 10.4885 19.205 11.3333 20.595ZM28.4233 21.4617L19.1667 36.6867L9.90999 21.4617C8.91186 19.8189 8.36879 17.9402 8.33652 16.0182C8.30424 14.0963 8.78393 12.2004 9.72634 10.525C10.6688 8.84968 12.04 7.45525 13.6992 6.48485C15.3585 5.51444 17.2461 5.00299 19.1683 5.00299C21.0905 5.00299 22.9781 5.51444 24.6374 6.48485C26.2967 7.45525 27.6679 8.84968 28.6103 10.525C29.5527 12.2004 30.0324 14.0963 30.0001 16.0182C29.9679 17.9402 29.4248 19.8189 28.4267 21.4617H28.4233Z" fill="#3B2B19"/>
</svg>
