<svg width="60" height="60" viewBox="0 0 60 60" fill="none" xmlns="http://www.w3.org/2000/svg">
<path d="M15.0075 30H35.6325L27.5075 21.875L29.1675 20L40.4175 31.25L29.1675 42.5L27.5075 40.625L35.6325 32.5H15.0075V30ZM52.5075 31.25C52.5075 34.3689 51.8932 37.4572 50.6996 40.3387C49.5061 43.2202 47.7567 45.8384 45.5513 48.0438C43.3459 50.2492 40.7277 51.9986 37.8462 53.1921C34.9648 54.3857 31.8764 55 28.7575 55C25.6386 55 22.5503 54.3857 19.6688 53.1921C16.7873 51.9986 14.1691 50.2492 11.9637 48.0438C9.75833 45.8384 8.00892 43.2202 6.81537 40.3387C5.62182 37.4572 5.00751 34.3689 5.00751 31.25C5.00751 24.9511 7.50973 18.9102 11.9637 14.4562C16.4177 10.0022 22.4586 7.5 28.7575 7.5C35.0564 7.5 41.0973 10.0022 45.5513 14.4562C50.0053 18.9102 52.5075 24.9511 52.5075 31.25ZM50.0075 31.25C50.0075 25.6141 47.7687 20.2091 43.7835 16.224C39.7984 12.2388 34.3934 10 28.7575 10C23.1217 10 17.7166 12.2388 13.7315 16.224C9.74634 20.2091 7.50751 25.6141 7.50751 31.25C7.50751 36.8859 9.74634 42.2909 13.7315 46.276C17.7166 50.2612 23.1217 52.5 28.7575 52.5C34.3934 52.5 39.7984 50.2612 43.7835 46.276C47.7687 42.2909 50.0075 36.8859 50.0075 31.25Z" fill="#8A9A5A"/>
</svg>
