<svg width="60" height="60" viewBox="0 0 60 60" fill="none" xmlns="http://www.w3.org/2000/svg">
<path d="M44.9925 30H24.3675L32.4925 21.875L30.8325 20L19.5825 31.25L30.8325 42.5L32.4925 40.625L24.3675 32.5H44.9925V30ZM7.49249 31.25C7.49249 34.3689 8.1068 37.4572 9.30035 40.3387C10.4939 43.2202 12.2433 45.8384 14.4487 48.0438C16.6541 50.2492 19.2723 51.9986 22.1538 53.1921C25.0352 54.3857 28.1236 55 31.2425 55C34.3614 55 37.4497 54.3857 40.3312 53.1921C43.2127 51.9986 45.8309 50.2492 48.0363 48.0438C50.2417 45.8384 51.9911 43.2202 53.1846 40.3387C54.3782 37.4572 54.9925 34.3689 54.9925 31.25C54.9925 24.9511 52.4903 18.9102 48.0363 14.4562C43.5823 10.0022 37.5414 7.5 31.2425 7.5C24.9436 7.5 18.9027 10.0022 14.4487 14.4562C9.99472 18.9102 7.49249 24.9511 7.49249 31.25ZM9.99249 31.25C9.99249 25.6141 12.2313 20.2091 16.2165 16.224C20.2016 12.2388 25.6066 10 31.2425 10C36.8783 10 42.2834 12.2388 46.2685 16.224C50.2537 20.2091 52.4925 25.6141 52.4925 31.25C52.4925 36.8859 50.2537 42.2909 46.2685 46.276C42.2834 50.2612 36.8783 52.5 31.2425 52.5C25.6066 52.5 20.2016 50.2612 16.2165 46.276C12.2313 42.2909 9.99249 36.8859 9.99249 31.25Z" fill="#8A9A5A"/>
</svg>
