<svg width="15" height="15" viewBox="0 0 15 15" fill="none" xmlns="http://www.w3.org/2000/svg"><path d="M13.748 2.435L11.855.548 7.923 4.474l1.525 1.574c-.256.453-.81 1.322-1.755 2.266a10.919 10.919 0 0 1-2.277 1.765L3.873 8.556l-3.87 3.847 1.882 1.895c.72.72 1.815.907 2.725.464 1.39-.674 3.485-1.919 5.584-4.018 2.1-2.098 3.344-4.195 4.018-5.584.16-.329.238-.682.238-1.033 0-.62-.242-1.232-.702-1.692zm-.55 2.232c-.637 1.311-1.814 3.292-3.801 5.28-1.988 1.988-3.969 3.164-5.28 3.8a1.255 1.255 0 0 1-1.433-.245l-1.087-1.094 2.278-2.264L5.19 11.44l.352-.156c.057-.026 1.417-.641 2.95-2.173 1.532-1.533 2.135-2.881 2.16-2.938l.152-.347-1.297-1.34 2.349-2.345 1.095 1.091c.38.38.479.957.247 1.434z" fill="#fff"/></svg>