<svg width="40" height="40" viewBox="0 0 40 40" fill="none" xmlns="http://www.w3.org/2000/svg"><path d="M26.667 30a3.333 3.333 0 1 1 0 6.667 3.333 3.333 0 0 1 0-6.667zm0 1.667a1.667 1.667 0 1 0 0 3.333 1.667 1.667 0 0 0 0-3.333zm-15-1.667a3.333 3.333 0 1 1 0 6.667 3.333 3.333 0 0 1 0-6.667zm0 1.667a1.667 1.667 0 1 0 0 3.333 1.667 1.667 0 0 0 0-3.333zM30 10H7.122l4.245 10H25a1.656 1.656 0 0 0 1.333-.67l5-6.667h.002A1.666 1.666 0 0 0 30 10zm-5 11.667H11.443l-1.276 2.6L10 25a1.666 1.666 0 0 0 1.667 1.667H30v1.666H11.667a3.333 3.333 0 0 1-2.917-4.95l1.2-2.456-6.053-14.26h-2.23V5H5l1.415 3.333H30a3.333 3.333 0 0 1 2.588 5.434l-4.856 6.476A3.33 3.33 0 0 1 25 21.667z" fill="#8A9A5A"/></svg>